<?xml version="1.0" encoding="UTF-8"?>
<svg id="Layer_2" data-name="Layer 2" xmlns="http://www.w3.org/2000/svg" viewBox="0 0 877.11 149.79">
  <defs>
    <style>
      .cls-1 {
        fill: #fff;
      }
    </style>
  </defs>
  <g id="Layer_1-2" data-name="Layer 1">
    <g>
      <path class="cls-1" d="M312.51,39.69v7.49c.57.67,6.03-4.57,7.1-5.26,8.21-5.29,18.01-4.96,26.39-.13,3.83,2.21,5.39,5.39,8.84,7.64,11.87-16.47,40.72-15.65,48.92,4.29.91,2.22,3.18,9.78,3.18,11.8v44.56h-23.98v-43.07c0-.39-1.46-4.24-1.83-4.92-3.44-6.32-12.78-5.87-17.22-.64-1.64,1.93-4.18,7.71-4.18,10.05v38.57h-23.98v-43.07c0-.39-1.46-4.24-1.83-4.92-2.18-4.01-6.78-5.29-11.13-4.29-4.69,1.08-10.27,11.48-10.27,15.94v36.32h-23.98V39.69h23.98Z"/>
      <path class="cls-1" d="M240.56,110.1v-7.49c-28.03,23.75-66.52-2.02-57.95-37.32,5.22-21.48,28.88-33.77,49.24-24.01,3.45,1.66,5.39,4.46,8.71,5.9v-7.49h23.99v70.4h-23.98ZM220.13,57.85c-19.22,3.26-16.73,38.15,7.14,34.09,19.71-3.35,16.64-38.13-7.14-34.09Z"/>
      <path class="cls-1" d="M129.65,106.35c-.98,1.01-14.46-7.5-16.5-8.77v-50.76c-.47-2.52-3.32-3.05-5.23-4.14v51.68l-17.09-10.26-.16-50.02c-.47-2.52-3.32-3.05-5.23-4.14v50.93l-16.49-8.24V1.5l60.7,34.83v70.03Z"/>
      <path class="cls-1" d="M30.73,96.62l33.92-20.12,60.51,34.36c.23,1.08-.1,1.21-.78,1.83-.73.67-11.62,7.15-12.33,7.15h-59.58c2,1.42,9.32,6.99,11.05,7.36,1.9.41,3.14-1.37,3.56-1.37h32.6l-34.73,20.8L4.11,111.6l13.5-8.24h57.33c-1.76-1.99-9.86-8.57-12.01-7.94-.68.2-1.6,1.2-1.85,1.2h-30.35Z"/>
      <path class="cls-1" d="M45.71,80.89v-16.48l-28.47,16.11-1.14,17.59-14.58,8.67-1.53-.8V36.32c0-.37.85-1.58,1.29-1.91L61.45,0v71.53l-15.74,9.36ZM16.49,61.41l29.23-16.85v-14.98l-1.53-.8-27.7,16.53v16.1Z"/>
      <polygon class="cls-1" points="493.86 39.69 460.89 91.37 494.61 91.37 494.61 110.1 420.42 110.1 456.39 57.67 423.42 57.67 423.42 39.69 493.86 39.69"/>
      <path class="cls-1" d="M816.11,98.86v50.93h-11.24V39.69h11.24v11.23c15.24-17.32,41-17.48,54.13,2.45,24.63,37.4-22.52,80.62-54.13,45.48ZM836.92,49.63c-27.78,3.77-26.82,47.98.56,50.73,37.74,3.79,36.48-55.75-.56-50.73Z"/>
      <path class="cls-1" d="M573.3,98.86v50.93h-11.24V39.69h11.24v11.23c26.11-29.74,68.15-2.95,59.46,33.58-6.65,27.94-41.13,37.14-59.46,14.35ZM594.1,49.63c-27.78,3.76-27.16,46.68-.75,50.54,38.52,5.63,37.82-55.56.75-50.54Z"/>
      <path class="cls-1" d="M781.64,79.39h-61.45c.39,9.5,9.72,17.87,18.69,19.89s16.06-.29,22.88-5.67c1.29-1.02,3.26-4.48,4.51-4.48h11.62c-8.98,24.82-43.41,29.26-60.72,10.13-16.29-18-10.08-48.53,12.25-58.2,26.72-11.57,55.15,9.71,52.22,38.33ZM769.65,69.65c-6.61-26.79-43.72-27.56-49.46,0h49.46Z"/>
      <path class="cls-1" d="M693.96,39.69v14.23c-8.69-6.38-16.96-2.04-21.39,6.71-.88,1.75-3.34,8.57-3.34,10.14v39.32h-11.24V39.69h11.24v11.23c2.17-1.75,2.97-4.58,4.86-6.75,5.21-5.95,12.59-7.23,19.87-4.49Z"/>
    </g>
  </g>
</svg>